<?xml version="1.0" encoding="utf-8"?>
<!-- Generator: Adobe Illustrator 21.1.0, SVG Export Plug-In . SVG Version: 6.00 Build 0)  -->
<svg version="1.1" id="Layer_1" xmlns="http://www.w3.org/2000/svg" xmlns:xlink="http://www.w3.org/1999/xlink" x="0px" y="0px"
	 viewBox="0 0 800 800" style="enable-background:new 0 0 800 800;" xml:space="preserve">
<style type="text/css">
	.st0{fill:none;stroke:#BD2A8D;stroke-width:46;stroke-miterlimit:10;}
	.st1{fill:#BD288D;}
	.st2{fill:none;stroke:#81499D;stroke-width:46;stroke-miterlimit:10;}
	.st3{fill:#BE298D;}
</style>
<path class="st0" d="M513.9,609H286.1c-64.3,0-116.9-52.6-116.9-116.9V267c0-65.7,53.7-119.4,119.4-119.4h225.4
	c64.3,0,116.9,52.6,116.9,116.9v227.6C630.8,556.4,578.2,609,513.9,609z"/>
<path class="st1" d="M498,379c0,0-53.1-52-95.5-51.7s-100.5,51.6-100.5,51.6s12.7-44.1,36.7-67c16.4-15.7,44.2-22.7,61.5-22.8
	c18-0.1,46.1,6.2,62.5,22.7C485,334.1,498,379,498,379z"/>
<path class="st1" d="M500.9,379.5c0,0-53.4,56.3-95.9,56.5c-42.4,0.2-101.1-50.5-101.1-50.5s13.2,43.9,37.5,66.6
	c16.6,15.5,44.5,22.2,61.7,22.1c18-0.1,46-6.8,62.3-23.4C487.5,428.3,500.9,379.5,500.9,379.5z"/>
<circle class="st2" cx="400.7" cy="379.5" r="108.1"/>
<circle class="st3" cx="402" cy="379.3" r="30.6"/>
</svg>
